<?xml version="1.0" encoding="utf-8"?>
<!-- Generator: Adobe Illustrator 22.0.1, SVG Export Plug-In . SVG Version: 6.00 Build 0)  -->
<svg version="1.1" id="图层_1" xmlns="http://www.w3.org/2000/svg" xmlns:xlink="http://www.w3.org/1999/xlink" x="0px" y="0px"
	 viewBox="0 0 14 15" style="enable-background:new 0 0 14 15;" xml:space="preserve">
<style type="text/css">
	.st0{fill:#3E81FF;}
</style>
<path id="Oval-2" class="st0" d="M8.8,14.8c-3.7,1-7.6-1.2-8.6-4.9s1.2-7.5,4.9-8.5C7.7,0.7,9.9,0.3,11.7,0c0.7,1.7,1.3,3.8,2,6.3
	C14.8,10,12.5,13.8,8.8,14.8z M4.8,6.4c-1.9,1.1-2.5,3.5-1.4,5.3c1.1,1.9,3.5,2.5,5.4,1.4s2.5-3.5,1.4-5.3c-0.7-1.2-1.4-2.3-2-3.2
	C7.1,5,6,5.7,4.8,6.4z"/>
</svg>
