<?xml version="1.0" encoding="utf-8"?>
<!-- Generator: Adobe Illustrator 22.0.1, SVG Export Plug-In . SVG Version: 6.00 Build 0)  -->
<svg version="1.1" id="图层_1" xmlns="http://www.w3.org/2000/svg" xmlns:xlink="http://www.w3.org/1999/xlink" x="0px" y="0px"
	 viewBox="0 0 796 106" style="enable-background:new 0 0 796 106;" xml:space="preserve">
<style type="text/css">
	.st0{fill-rule:evenodd;clip-rule:evenodd;fill:#4899FF;}
</style>
<g>
	<g>
		<path class="st0" d="M796.5,106l-15.6-20c1-1.1,1.6-2.5,1.6-4c0-3.3-2.7-6-6-6c-2.8,0-5.1,1.9-5.8,4.4L611.3,43.4
			c0.1-0.4,0.2-0.9,0.2-1.4c0-3.3-2.7-6-6-6c-2.7,0-5,1.8-5.7,4.3L485.5,6.4c0-0.1,0-0.2,0-0.4c0-3.3-2.7-6-6-6s-6,2.7-6,6
			c0,0.5,0.1,0.9,0.2,1.3l-157,46.5c-1.1-1.7-2.9-2.9-5.1-2.9c-3.3,0-6,2.7-6,6c0,0.6,0.1,1.2,0.3,1.7l-143.6,46.7l-75-29.6
			c0.2-0.6,0.3-1.2,0.3-1.9c0-3.3-2.7-6-6-6c-3.3,0-6,2.7-6,6c0,0.8,0.2,1.5,0.4,2.2L0.5,106h2l73.9-28.9c1.1,1.7,3,2.9,5.1,2.9
			c2.3,0,4.3-1.3,5.3-3.2l74.3,29l-0.5,0.2h1h2h1l141.6-46.4c0.1,0.3,0.3,0.5,0.4,0.7l-42,45.6h2l40.7-44.8c1.1,1.1,2.6,1.8,4.3,1.8
			c2.5,0,4.7-1.6,5.6-3.8L441.5,106h2h1l54.7-25.4c0.9,1.4,2.4,2.4,4.3,2.4c1.2,0,2.3-0.4,3.1-1.1l20.9,24.1h1l-21.2-24.8
			c0.7-0.9,1.2-2,1.2-3.2c0-0.3,0-0.6-0.1-0.9l91.7-32.5c0.9,1.9,2.8,3.2,5,3.4L609,106l1-0.1l-3.9-58c1.8-0.2,3.3-1.1,4.3-2.5
			l89.7,58.9l0.4-0.3l0.1,0.5l70.7-19.4c1.1,1.7,3,2.9,5.1,2.9c1.4,0,2.7-0.5,3.7-1.3l15.3,19.3H796.5z M474,8.3
			c0.9,2.2,3,3.7,5.5,3.7c0.5,0,1-0.1,1.4-0.2l20.5,61.6c-1.5,0.7-2.6,2.1-2.9,3.8L317.4,56c-0.1-0.4-0.2-0.8-0.3-1.2L474,8.3z
			 M442.4,105.6l-125-47.3c0.1-0.4,0.1-0.9,0.1-1.3c0,0,0,0,0,0l181,21.3c0,0.5,0.1,1,0.3,1.4L442.4,105.6z M508.2,76.2
			c-0.7-1.9-2.5-3.2-4.7-3.2c-0.4,0-0.7,0-1.1,0.1l-20.5-61.6c1.7-0.7,3-2.3,3.5-4.2l114.2,33.9c0,0.2-0.1,0.5-0.1,0.8
			c0,0.6,0.1,1.2,0.3,1.8L508.2,76.2z M700.6,103.5l-89.7-58.8c0.1-0.1,0.1-0.2,0.2-0.4l159.5,37.1c0,0.2,0,0.4,0,0.6
			c0,0.8,0.2,1.5,0.4,2.2L700.6,103.5z"/>
	</g>
</g>
</svg>
