<?xml version="1.0" encoding="utf-8"?>
<!-- Generator: Adobe Illustrator 22.0.1, SVG Export Plug-In . SVG Version: 6.00 Build 0)  -->
<svg version="1.1" id="图层_1" xmlns="http://www.w3.org/2000/svg" xmlns:xlink="http://www.w3.org/1999/xlink" x="0px" y="0px"
	 viewBox="0 0 30 30" style="enable-background:new 0 0 30 30;" xml:space="preserve">
<style type="text/css">
	.st0{fill-rule:evenodd;clip-rule:evenodd;fill:#728EAA;}
</style>
<g>
	<path class="st0" d="M28,24H17v3h5.5c0.8,0,1.5,0.7,1.5,1.5S23.3,30,22.5,30h-15C6.7,30,6,29.3,6,28.5S6.7,27,7.5,27H13v-3H2
		c-1,0-2-0.2-2-1.1V1.7C0,0.7,0.7,0,1.7,0h26.6c1,0,1.7,0.7,1.7,1.7v21.2C30,23.8,29,24,28,24z M27,3H3v18h24V3z M23,17H7V7h16V17z"
		/>
</g>
</svg>
