<?xml version="1.0" encoding="utf-8"?>
<!-- Generator: Adobe Illustrator 22.0.1, SVG Export Plug-In . SVG Version: 6.00 Build 0)  -->
<svg version="1.1" id="图层_1" xmlns="http://www.w3.org/2000/svg" xmlns:xlink="http://www.w3.org/1999/xlink" x="0px" y="0px"
	 viewBox="0 0 32 32" style="enable-background:new 0 0 32 32;" xml:space="preserve">
<style type="text/css">
	.st0{fill-rule:evenodd;clip-rule:evenodd;fill:#728EAA;}
</style>
<g>
	<path class="st0" d="M16,32C7.2,32,0,24.8,0,16S7.2,0,16,0s16,7.2,16,16S24.8,32,16,32z M8.5,21h1c0.4,0,0.5,0,0.5,0h8l-5,4h4l8-7
		H10c0,0-0.1,0-0.5,0h-1C7.7,18,7,18.7,7,19.5C7,20.3,7.7,21,8.5,21z M23.5,12h-1c-0.4,0-0.5,0-0.5,0h-8l5-4h-4l-8,7h15
		c0,0,0.1,0,0.5,0h1c0.8,0,1.5-0.7,1.5-1.5C25,12.7,24.3,12,23.5,12z"/>
</g>
</svg>
