<?xml version="1.0" encoding="utf-8"?>
<!-- Generator: Adobe Illustrator 22.0.1, SVG Export Plug-In . SVG Version: 6.00 Build 0)  -->
<svg version="1.1" id="图层_1" xmlns="http://www.w3.org/2000/svg" xmlns:xlink="http://www.w3.org/1999/xlink" x="0px" y="0px"
	 viewBox="0 0 30 28" style="enable-background:new 0 0 30 28;" xml:space="preserve">
<style type="text/css">
	.st0{fill-rule:evenodd;clip-rule:evenodd;fill:#728EAA;}
</style>
<g>
	<path class="st0" d="M27,17h-9c-1.7,0-3-1.3-3-3c0-1.7,1.3-3,3-3h9c1.7,0,3,1.3,3,3C30,15.7,28.7,17,27,17z M11,14c0,3.9,3.1,7,7,7
		h10v3c0,2.2-1.8,4-4,4H4c-2.2,0-4-1.8-4-4V4c0-2.2,1.8-4,4-4h20c2.2,0,4,1.8,4,4v3H18C14.1,7,11,10.1,11,14z"/>
</g>
</svg>
