<?xml version="1.0" encoding="utf-8"?>
<!-- Generator: Adobe Illustrator 22.0.1, SVG Export Plug-In . SVG Version: 6.00 Build 0)  -->
<svg version="1.1" id="图层_1" xmlns="http://www.w3.org/2000/svg" xmlns:xlink="http://www.w3.org/1999/xlink" x="0px" y="0px"
	 viewBox="0 0 32 28" style="enable-background:new 0 0 32 28;" xml:space="preserve">
<style type="text/css">
	.st0{fill:#728EAA;}
</style>
<g>
	<path class="st0" d="M27.9,0.1H4.2C1.9,0.1,0.1,2,0.1,4.4v19.3c0,2.4,1.9,4.3,4.1,4.3h23.7c2.3,0,4.1-1.9,4.1-4.3V4.4
		C32,2,30.1,0.1,27.9,0.1L27.9,0.1L27.9,0.1z M20,9h6.1c0.5,0,0.9,0.6,0.9,1c0,0.4-0.4,1-0.9,1H20c-0.5,0-0.9-0.6-0.9-1
		C19,9.6,19.5,9,20,9L20,9z M20,14h6.1c0.5,0,0.9,0.6,0.9,1c0,0.4-0.4,1-0.9,1H20c-0.5,0-0.9-0.6-0.9-1S19.5,14,20,14L20,14z
		 M3.7,21C3.3,20.9,3,20.5,3,20c0.6-2.8,2.7-5,5.4-5.7c-1.4-0.7-2.4-2.2-2.4-3.8C6.1,8,8.1,6,10.5,6C13,6,15,8,15,10.4
		c0,1.7-1,3.1-2.4,3.8c2.7,0.8,4.9,2.9,5.4,5.8c0.1,0.5-0.2,0.9-0.7,1l0,0c-0.1,0-0.1,0-0.2,0 M28.2,21h-8.3c-0.4,0-0.9-0.6-0.9-1
		c0-0.4,0.4-1,0.9-1h8.3c0.4,0,0.9,0.6,0.9,1C29,20.4,28.6,21,28.2,21z"/>
</g>
</svg>
