<?xml version="1.0" encoding="utf-8"?>
<!-- Generator: Adobe Illustrator 22.0.1, SVG Export Plug-In . SVG Version: 6.00 Build 0)  -->
<svg version="1.1" id="图层_1" xmlns="http://www.w3.org/2000/svg" xmlns:xlink="http://www.w3.org/1999/xlink" x="0px" y="0px"
	 viewBox="0 0 32 32" style="enable-background:new 0 0 32 32;" xml:space="preserve">
<style type="text/css">
	.st0{fill:#728EAA;}
</style>
<g>
	<path class="st0" d="M15.7,0c-0.9,0-1.7,0.1-2.5,0.2c0.4,0.1,0.8,0.2,1.4,0.2c2.1-0.1,3.4,0.3,1.9,0.9C15,1.9,15.3,2.5,16,2.6
		c0.7,0.1,2.4-0.7,2.9,0c0.6,0.7-0.6,1.8,0.1,3c1.1,1.8-2.6,2.2-3.5,3.6c-0.9,1.3-1.4,2.7-0.4,4.6c1,1.9,1.2,0.7,3,1
		c3.5,0.4,2.5,3.2,6.8,4c1.7,0.3,0.5,3.9-2.4,5.7c-2.8,1.7-1.9,3.6-5.9,4.9c-1,0.3-1.7,0.1-0.9-0.9c1.4-2.1,1.3-4.4,0-5.4
		c-1.3-1-2.8-1.3-2.4-2.8c0.4-1.6,1.7-2.1,1.8-3.6c0.1-1.4-2.1-6-4.8-5.1c-1.6,0.5-4.6-1.4-4.4-4c0.2-3,2.5-3.5,2-5.3c0,0,0,0,0,0
		C3.2,4.8,0,9.9,0,15.8c0,8.7,7.1,15.7,15.7,15.7c8.7,0,15.7-7.1,15.7-15.7C31.5,7.1,24.4,0,15.7,0z"/>
</g>
</svg>
